<svg width="1028.3" height="72" viewBox="0 0 1028.3 72" xmlns="http://www.w3.org/2000/svg"><g id="svgGroup" stroke-linecap="round" fill-rule="evenodd" font-size="9pt" stroke="#000" stroke-width="0.25mm" fill="none" style="stroke:#000;stroke-width:0.25mm;fill:none"><path d="M 32.4 56 L 24.4 56 A 13.936 13.936 0 0 1 24.127 54.398 Q 24 53.294 24 52 A 23.85 23.85 0 0 1 24.054 50.345 Q 24.147 49.013 24.4 48 A 13.936 13.936 0 0 1 24.127 46.398 Q 24 45.294 24 44 A 23.85 23.85 0 0 1 24.054 42.345 Q 24.147 41.013 24.4 40 A 13.936 13.936 0 0 1 24.127 38.398 Q 24 37.294 24 36 A 23.85 23.85 0 0 1 24.054 34.345 Q 24.147 33.013 24.4 32 L 8.4 32 A 11.741 11.741 0 0 1 8.644 33.313 Q 8.737 34.018 8.774 34.833 A 25.306 25.306 0 0 1 8.8 36 Q 8.8 37.968 8.507 39.496 A 12.311 12.311 0 0 1 8.4 40 A 11.741 11.741 0 0 1 8.644 41.313 Q 8.737 42.018 8.774 42.833 A 25.306 25.306 0 0 1 8.8 44 Q 8.8 45.968 8.507 47.496 A 12.311 12.311 0 0 1 8.4 48 A 11.741 11.741 0 0 1 8.644 49.313 Q 8.737 50.018 8.774 50.833 A 25.306 25.306 0 0 1 8.8 52 Q 8.8 53.968 8.507 55.496 A 12.311 12.311 0 0 1 8.4 56 L 0.4 56 A 13.936 13.936 0 0 1 0.127 54.398 Q 0 53.294 0 52 A 23.85 23.85 0 0 1 0.054 50.345 Q 0.147 49.013 0.4 48 A 13.936 13.936 0 0 1 0.127 46.398 Q 0 45.294 0 44 A 23.85 23.85 0 0 1 0.054 42.345 Q 0.147 41.013 0.4 40 A 13.936 13.936 0 0 1 0.127 38.398 Q 0 37.294 0 36 A 23.85 23.85 0 0 1 0.054 34.345 Q 0.147 33.013 0.4 32 A 13.936 13.936 0 0 1 0.127 30.398 Q 0 29.294 0 28 A 23.85 23.85 0 0 1 0.054 26.345 Q 0.147 25.013 0.4 24 A 13.936 13.936 0 0 1 0.127 22.398 Q 0 21.294 0 20 A 23.85 23.85 0 0 1 0.054 18.345 Q 0.147 17.013 0.4 16 A 13.936 13.936 0 0 1 0.127 14.398 Q 0 13.294 0 12 A 23.85 23.85 0 0 1 0.054 10.345 Q 0.147 9.013 0.4 8 A 13.936 13.936 0 0 1 0.127 6.398 Q 0 5.294 0 4 A 23.85 23.85 0 0 1 0.054 2.345 Q 0.147 1.013 0.4 0 L 8.4 0 A 11.741 11.741 0 0 1 8.644 1.313 Q 8.737 2.018 8.774 2.833 A 25.306 25.306 0 0 1 8.8 4 Q 8.8 5.968 8.507 7.496 A 12.311 12.311 0 0 1 8.4 8 A 11.741 11.741 0 0 1 8.644 9.313 Q 8.737 10.018 8.774 10.833 A 25.306 25.306 0 0 1 8.8 12 Q 8.8 13.968 8.507 15.496 A 12.311 12.311 0 0 1 8.4 16 A 11.741 11.741 0 0 1 8.644 17.313 Q 8.737 18.018 8.774 18.833 A 25.306 25.306 0 0 1 8.8 20 Q 8.8 21.968 8.507 23.496 A 12.311 12.311 0 0 1 8.4 24 L 24.4 24 A 13.936 13.936 0 0 1 24.127 22.398 Q 24 21.294 24 20 A 23.85 23.85 0 0 1 24.054 18.345 Q 24.147 17.013 24.4 16 A 13.936 13.936 0 0 1 24.127 14.398 Q 24 13.294 24 12 A 23.85 23.85 0 0 1 24.054 10.345 Q 24.147 9.013 24.4 8 A 13.936 13.936 0 0 1 24.127 6.398 Q 24 5.294 24 4 A 23.85 23.85 0 0 1 24.054 2.345 Q 24.147 1.013 24.4 0 L 32.4 0 Q 32.698 1.194 32.774 2.833 A 25.306 25.306 0 0 1 32.8 4 Q 32.8 5.968 32.507 7.496 A 12.311 12.311 0 0 1 32.4 8 Q 32.698 9.194 32.774 10.833 A 25.306 25.306 0 0 1 32.8 12 Q 32.8 13.968 32.507 15.496 A 12.311 12.311 0 0 1 32.4 16 Q 32.698 17.194 32.774 18.833 A 25.306 25.306 0 0 1 32.8 20 Q 32.8 21.968 32.507 23.496 A 12.311 12.311 0 0 1 32.4 24 Q 32.698 25.194 32.774 26.833 A 25.306 25.306 0 0 1 32.8 28 Q 32.8 29.968 32.507 31.496 A 12.311 12.311 0 0 1 32.4 32 Q 32.698 33.194 32.774 34.833 A 25.306 25.306 0 0 1 32.8 36 Q 32.8 37.968 32.507 39.496 A 12.311 12.311 0 0 1 32.4 40 Q 32.698 41.194 32.774 42.833 A 25.306 25.306 0 0 1 32.8 44 Q 32.8 45.968 32.507 47.496 A 12.311 12.311 0 0 1 32.4 48 Q 32.698 49.194 32.774 50.833 A 25.306 25.306 0 0 1 32.8 52 Q 32.8 53.968 32.507 55.496 A 12.311 12.311 0 0 1 32.4 56 Z M 392.4 24 L 389.4 24 A 11.741 11.741 0 0 1 389.644 25.313 Q 389.737 26.018 389.774 26.833 A 25.306 25.306 0 0 1 389.8 28 Q 389.8 29.968 389.507 31.496 A 12.311 12.311 0 0 1 389.4 32 L 386.4 32 Q 386.698 33.194 386.774 34.833 A 25.306 25.306 0 0 1 386.8 36 Q 386.8 37.968 386.507 39.496 A 12.311 12.311 0 0 1 386.4 40 L 384.4 40 Q 384.698 41.194 384.774 42.833 A 25.306 25.306 0 0 1 384.8 44 Q 384.8 45.968 384.507 47.496 A 12.311 12.311 0 0 1 384.4 48 L 381.4 48 Q 381.698 49.194 381.774 50.833 A 25.306 25.306 0 0 1 381.8 52 Q 381.8 53.968 381.507 55.496 A 12.311 12.311 0 0 1 381.4 56 L 379.4 56 Q 379.698 57.194 379.774 58.833 A 25.306 25.306 0 0 1 379.8 60 Q 379.8 61.968 379.507 63.496 A 12.311 12.311 0 0 1 379.4 64 L 375.4 64 Q 375.698 65.194 375.774 66.833 A 25.306 25.306 0 0 1 375.8 68 Q 375.8 69.968 375.507 71.496 A 12.311 12.311 0 0 1 375.4 72 L 363.4 72 A 13.936 13.936 0 0 1 363.127 70.398 Q 363 69.294 363 68 A 23.85 23.85 0 0 1 363.054 66.345 Q 363.147 65.013 363.4 64 L 371.4 64 A 13.936 13.936 0 0 1 371.127 62.398 Q 371 61.294 371 60 A 23.85 23.85 0 0 1 371.054 58.345 Q 371.147 57.013 371.4 56 A 13.936 13.936 0 0 1 371.127 54.398 Q 371 53.294 371 52 A 23.85 23.85 0 0 1 371.054 50.345 Q 371.147 49.013 371.4 48 L 367.4 48 A 13.936 13.936 0 0 1 367.127 46.398 Q 367 45.294 367 44 A 23.85 23.85 0 0 1 367.054 42.345 Q 367.147 41.013 367.4 40 L 365.4 40 A 13.936 13.936 0 0 1 365.127 38.398 Q 365 37.294 365 36 A 23.85 23.85 0 0 1 365.054 34.345 Q 365.147 33.013 365.4 32 L 362.4 32 A 13.936 13.936 0 0 1 362.127 30.398 Q 362 29.294 362 28 A 23.85 23.85 0 0 1 362.054 26.345 Q 362.147 25.013 362.4 24 L 359.4 24 A 13.936 13.936 0 0 1 359.127 22.398 Q 359 21.294 359 20 A 23.85 23.85 0 0 1 359.054 18.345 Q 359.147 17.013 359.4 16 L 367.4 16 A 11.741 11.741 0 0 1 367.644 17.313 Q 367.737 18.018 367.774 18.833 A 25.306 25.306 0 0 1 367.8 20 Q 367.8 21.968 367.507 23.496 A 12.311 12.311 0 0 1 367.4 24 L 370.4 24 A 11.741 11.741 0 0 1 370.644 25.313 Q 370.737 26.018 370.774 26.833 A 25.306 25.306 0 0 1 370.8 28 Q 370.8 29.968 370.507 31.496 A 12.311 12.311 0 0 1 370.4 32 L 373.4 32 A 11.741 11.741 0 0 1 373.644 33.313 Q 373.737 34.018 373.774 34.833 A 25.306 25.306 0 0 1 373.8 36 Q 373.8 37.968 373.507 39.496 A 12.311 12.311 0 0 1 373.4 40 A 11.741 11.741 0 0 1 373.644 41.313 Q 373.737 42.018 373.774 42.833 A 25.306 25.306 0 0 1 373.8 44 Q 373.8 45.968 373.507 47.496 A 12.311 12.311 0 0 1 373.4 48 L 376.4 48 A 13.936 13.936 0 0 1 376.127 46.398 Q 376 45.294 376 44 A 23.85 23.85 0 0 1 376.054 42.345 Q 376.147 41.013 376.4 40 L 378.4 40 A 13.936 13.936 0 0 1 378.127 38.398 Q 378 37.294 378 36 A 23.85 23.85 0 0 1 378.054 34.345 Q 378.147 33.013 378.4 32 L 381.4 32 A 13.936 13.936 0 0 1 381.127 30.398 Q 381 29.294 381 28 A 23.85 23.85 0 0 1 381.054 26.345 Q 381.147 25.013 381.4 24 L 384.4 24 A 13.936 13.936 0 0 1 384.127 22.398 Q 384 21.294 384 20 A 23.85 23.85 0 0 1 384.054 18.345 Q 384.147 17.013 384.4 16 L 392.4 16 Q 392.698 17.194 392.774 18.833 A 25.306 25.306 0 0 1 392.8 20 Q 392.8 21.968 392.507 23.496 A 12.311 12.311 0 0 1 392.4 24 Z M 887.4 24 L 891.4 24 L 904.4 24 Q 904.147 25.013 904.054 26.345 A 23.85 23.85 0 0 0 904 28 Q 904 29.294 904.127 30.398 A 13.936 13.936 0 0 0 904.4 32 Q 904.147 33.013 904.054 34.345 A 23.85 23.85 0 0 0 904 36 Q 904 37.294 904.127 38.398 A 13.936 13.936 0 0 0 904.4 40 Q 904.147 41.013 904.054 42.345 A 23.85 23.85 0 0 0 904 44 Q 904 45.294 904.127 46.398 A 13.936 13.936 0 0 0 904.4 48 Q 904.147 49.013 904.054 50.345 A 23.85 23.85 0 0 0 904 52 Q 904 53.294 904.127 54.398 A 13.936 13.936 0 0 0 904.4 56 L 912.4 56 A 12.311 12.311 0 0 0 912.507 55.496 Q 912.8 53.968 912.8 52 A 25.306 25.306 0 0 0 912.774 50.833 Q 912.698 49.194 912.4 48 A 12.311 12.311 0 0 0 912.507 47.496 Q 912.8 45.968 912.8 44 A 25.306 25.306 0 0 0 912.774 42.833 Q 912.698 41.194 912.4 40 A 12.311 12.311 0 0 0 912.507 39.496 Q 912.8 37.968 912.8 36 A 25.306 25.306 0 0 0 912.774 34.833 Q 912.698 33.194 912.4 32 A 12.311 12.311 0 0 0 912.507 31.496 Q 912.8 29.968 912.8 28 A 25.306 25.306 0 0 0 912.774 26.833 Q 912.698 25.194 912.4 24 L 907.4 24 A 12.311 12.311 0 0 0 907.507 23.496 Q 907.8 21.968 907.8 20 A 25.306 25.306 0 0 0 907.774 18.833 Q 907.698 17.194 907.4 16 L 891.4 16 Q 891.147 17.013 891.054 18.345 A 23.85 23.85 0 0 0 891 20 Q 891 21.294 891.127 22.398 A 13.936 13.936 0 0 0 891.4 24 A 11.741 11.741 0 0 1 891.644 25.313 Q 891.737 26.018 891.774 26.833 A 25.306 25.306 0 0 1 891.8 28 Q 891.8 29.968 891.507 31.496 A 12.311 12.311 0 0 1 891.4 32 L 888.4 32 A 11.741 11.741 0 0 1 888.644 33.313 Q 888.737 34.018 888.774 34.833 A 25.306 25.306 0 0 1 888.8 36 Q 888.8 37.968 888.507 39.496 A 12.311 12.311 0 0 1 888.4 40 A 11.741 11.741 0 0 1 888.644 41.313 Q 888.737 42.018 888.774 42.833 A 25.306 25.306 0 0 1 888.8 44 Q 888.8 45.968 888.507 47.496 A 12.311 12.311 0 0 1 888.4 48 A 11.741 11.741 0 0 1 888.644 49.313 Q 888.737 50.018 888.774 50.833 A 25.306 25.306 0 0 1 888.8 52 Q 888.8 53.968 888.507 55.496 A 12.311 12.311 0 0 1 888.4 56 L 880.4 56 A 13.936 13.936 0 0 1 880.127 54.398 Q 880 53.294 880 52 A 23.85 23.85 0 0 1 880.054 50.345 Q 880.147 49.013 880.4 48 A 13.936 13.936 0 0 1 880.127 46.398 Q 880 45.294 880 44 A 23.85 23.85 0 0 1 880.054 42.345 Q 880.147 41.013 880.4 40 A 13.936 13.936 0 0 1 880.127 38.398 Q 880 37.294 880 36 A 23.85 23.85 0 0 1 880.054 34.345 Q 880.147 33.013 880.4 32 A 13.936 13.936 0 0 1 880.127 30.398 Q 880 29.294 880 28 A 23.85 23.85 0 0 1 880.054 26.345 Q 880.147 25.013 880.4 24 A 13.936 13.936 0 0 1 880.127 22.398 Q 880 21.294 880 20 A 23.85 23.85 0 0 1 880.054 18.345 Q 880.147 17.013 880.4 16 L 887.4 16 A 11.741 11.741 0 0 1 887.644 17.313 Q 887.737 18.018 887.774 18.833 A 25.306 25.306 0 0 1 887.8 20 Q 887.8 21.968 887.507 23.496 A 12.311 12.311 0 0 1 887.4 24 Z M 270.4 48 L 266.4 48 Q 266.698 49.194 266.774 50.833 A 25.306 25.306 0 0 1 266.8 52 Q 266.8 53.968 266.507 55.496 A 12.311 12.311 0 0 1 266.4 56 L 244.4 56 A 13.936 13.936 0 0 1 244.127 54.398 Q 244 53.294 244 52 A 23.85 23.85 0 0 1 244.054 50.345 Q 244.147 49.013 244.4 48 L 262.4 48 A 13.936 13.936 0 0 1 262.127 46.398 Q 262 45.294 262 44 A 23.85 23.85 0 0 1 262.054 42.345 Q 262.147 41.013 262.4 40 L 246.4 40 A 13.936 13.936 0 0 1 246.127 38.398 Q 246 37.294 246 36 A 23.85 23.85 0 0 1 246.054 34.345 Q 246.147 33.013 246.4 32 L 242.4 32 A 13.936 13.936 0 0 1 242.127 30.398 Q 242 29.294 242 28 A 23.85 23.85 0 0 1 242.054 26.345 Q 242.147 25.013 242.4 24 L 246.4 24 A 13.936 13.936 0 0 1 246.127 22.398 Q 246 21.294 246 20 A 23.85 23.85 0 0 1 246.054 18.345 Q 246.147 17.013 246.4 16 L 268.4 16 A 11.741 11.741 0 0 1 268.644 17.313 Q 268.737 18.018 268.774 18.833 A 25.306 25.306 0 0 1 268.8 20 Q 268.8 21.968 268.507 23.496 A 12.311 12.311 0 0 1 268.4 24 L 250.4 24 A 11.741 11.741 0 0 1 250.644 25.313 Q 250.737 26.018 250.774 26.833 A 25.306 25.306 0 0 1 250.8 28 Q 250.8 29.968 250.507 31.496 A 12.311 12.311 0 0 1 250.4 32 L 266.4 32 Q 266.698 33.194 266.774 34.833 A 25.306 25.306 0 0 1 266.8 36 Q 266.8 37.968 266.507 39.496 A 12.311 12.311 0 0 1 266.4 40 L 270.4 40 Q 270.698 41.194 270.774 42.833 A 25.306 25.306 0 0 1 270.8 44 Q 270.8 45.968 270.507 47.496 A 12.311 12.311 0 0 1 270.4 48 Z M 790.4 48 L 786.4 48 Q 786.698 49.194 786.774 50.833 A 25.306 25.306 0 0 1 786.8 52 Q 786.8 53.968 786.507 55.496 A 12.311 12.311 0 0 1 786.4 56 L 764.4 56 A 13.936 13.936 0 0 1 764.127 54.398 Q 764 53.294 764 52 A 23.85 23.85 0 0 1 764.054 50.345 Q 764.147 49.013 764.4 48 L 782.4 48 A 13.936 13.936 0 0 1 782.127 46.398 Q 782 45.294 782 44 A 23.85 23.85 0 0 1 782.054 42.345 Q 782.147 41.013 782.4 40 L 766.4 40 A 13.936 13.936 0 0 1 766.127 38.398 Q 766 37.294 766 36 A 23.85 23.85 0 0 1 766.054 34.345 Q 766.147 33.013 766.4 32 L 762.4 32 A 13.936 13.936 0 0 1 762.127 30.398 Q 762 29.294 762 28 A 23.85 23.85 0 0 1 762.054 26.345 Q 762.147 25.013 762.4 24 L 766.4 24 A 13.936 13.936 0 0 1 766.127 22.398 Q 766 21.294 766 20 A 23.85 23.85 0 0 1 766.054 18.345 Q 766.147 17.013 766.4 16 L 788.4 16 A 11.741 11.741 0 0 1 788.644 17.313 Q 788.737 18.018 788.774 18.833 A 25.306 25.306 0 0 1 788.8 20 Q 788.8 21.968 788.507 23.496 A 12.311 12.311 0 0 1 788.4 24 L 770.4 24 A 11.741 11.741 0 0 1 770.644 25.313 Q 770.737 26.018 770.774 26.833 A 25.306 25.306 0 0 1 770.8 28 Q 770.8 29.968 770.507 31.496 A 12.311 12.311 0 0 1 770.4 32 L 786.4 32 Q 786.698 33.194 786.774 34.833 A 25.306 25.306 0 0 1 786.8 36 Q 786.8 37.968 786.507 39.496 A 12.311 12.311 0 0 1 786.4 40 L 790.4 40 Q 790.698 41.194 790.774 42.833 A 25.306 25.306 0 0 1 790.8 44 Q 790.8 45.968 790.507 47.496 A 12.311 12.311 0 0 1 790.4 48 Z M 112.4 32 L 104.4 32 A 13.936 13.936 0 0 1 104.127 30.398 Q 104 29.294 104 28 A 23.85 23.85 0 0 1 104.054 26.345 Q 104.147 25.013 104.4 24 L 97.4 24 Q 97.698 25.194 97.774 26.833 A 25.306 25.306 0 0 1 97.8 28 Q 97.8 29.968 97.507 31.496 A 12.311 12.311 0 0 1 97.4 32 L 94.4 32 A 11.741 11.741 0 0 1 94.644 33.313 Q 94.737 34.018 94.774 34.833 A 25.306 25.306 0 0 1 94.8 36 Q 94.8 37.968 94.507 39.496 A 12.311 12.311 0 0 1 94.4 40 A 11.741 11.741 0 0 1 94.644 41.313 Q 94.737 42.018 94.774 42.833 A 25.306 25.306 0 0 1 94.8 44 Q 94.8 45.968 94.507 47.496 A 12.311 12.311 0 0 1 94.4 48 L 100.4 48 Q 100.698 49.194 100.774 50.833 A 25.306 25.306 0 0 1 100.8 52 Q 100.8 53.968 100.507 55.496 A 12.311 12.311 0 0 1 100.4 56 L 80.4 56 A 13.936 13.936 0 0 1 80.127 54.398 Q 80 53.294 80 52 A 23.85 23.85 0 0 1 80.054 50.345 Q 80.147 49.013 80.4 48 L 86.4 48 A 13.936 13.936 0 0 1 86.127 46.398 Q 86 45.294 86 44 A 23.85 23.85 0 0 1 86.054 42.345 Q 86.147 41.013 86.4 40 A 13.936 13.936 0 0 1 86.127 38.398 Q 86 37.294 86 36 A 23.85 23.85 0 0 1 86.054 34.345 Q 86.147 33.013 86.4 32 A 13.936 13.936 0 0 1 86.127 30.398 Q 86 29.294 86 28 A 23.85 23.85 0 0 1 86.054 26.345 Q 86.147 25.013 86.4 24 L 80.4 24 A 13.936 13.936 0 0 1 80.127 22.398 Q 80 21.294 80 20 A 23.85 23.85 0 0 1 80.054 18.345 Q 80.147 17.013 80.4 16 L 90.4 16 A 11.741 11.741 0 0 1 90.644 17.313 Q 90.737 18.018 90.774 18.833 A 25.306 25.306 0 0 1 90.8 20 Q 90.8 21.968 90.507 23.496 A 12.311 12.311 0 0 1 90.4 24 L 94.4 24 A 13.936 13.936 0 0 1 94.127 22.398 Q 94 21.294 94 20 A 23.85 23.85 0 0 1 94.054 18.345 Q 94.147 17.013 94.4 16 L 109.4 16 A 11.741 11.741 0 0 1 109.644 17.313 Q 109.737 18.018 109.774 18.833 A 25.306 25.306 0 0 1 109.8 20 Q 109.8 21.968 109.507 23.496 A 12.311 12.311 0 0 1 109.4 24 L 112.4 24 Q 112.698 25.194 112.774 26.833 A 25.306 25.306 0 0 1 112.8 28 Q 112.8 29.968 112.507 31.496 A 12.311 12.311 0 0 1 112.4 32 Z M 752.4 32 L 744.4 32 A 13.936 13.936 0 0 1 744.127 30.398 Q 744 29.294 744 28 A 23.85 23.85 0 0 1 744.054 26.345 Q 744.147 25.013 744.4 24 L 737.4 24 Q 737.698 25.194 737.774 26.833 A 25.306 25.306 0 0 1 737.8 28 Q 737.8 29.968 737.507 31.496 A 12.311 12.311 0 0 1 737.4 32 L 734.4 32 A 11.741 11.741 0 0 1 734.644 33.313 Q 734.737 34.018 734.774 34.833 A 25.306 25.306 0 0 1 734.8 36 Q 734.8 37.968 734.507 39.496 A 12.311 12.311 0 0 1 734.4 40 A 11.741 11.741 0 0 1 734.644 41.313 Q 734.737 42.018 734.774 42.833 A 25.306 25.306 0 0 1 734.8 44 Q 734.8 45.968 734.507 47.496 A 12.311 12.311 0 0 1 734.4 48 L 740.4 48 Q 740.698 49.194 740.774 50.833 A 25.306 25.306 0 0 1 740.8 52 Q 740.8 53.968 740.507 55.496 A 12.311 12.311 0 0 1 740.4 56 L 720.4 56 A 13.936 13.936 0 0 1 720.127 54.398 Q 720 53.294 720 52 A 23.85 23.85 0 0 1 720.054 50.345 Q 720.147 49.013 720.4 48 L 726.4 48 A 13.936 13.936 0 0 1 726.127 46.398 Q 726 45.294 726 44 A 23.85 23.85 0 0 1 726.054 42.345 Q 726.147 41.013 726.4 40 A 13.936 13.936 0 0 1 726.127 38.398 Q 726 37.294 726 36 A 23.85 23.85 0 0 1 726.054 34.345 Q 726.147 33.013 726.4 32 A 13.936 13.936 0 0 1 726.127 30.398 Q 726 29.294 726 28 A 23.85 23.85 0 0 1 726.054 26.345 Q 726.147 25.013 726.4 24 L 720.4 24 A 13.936 13.936 0 0 1 720.127 22.398 Q 720 21.294 720 20 A 23.85 23.85 0 0 1 720.054 18.345 Q 720.147 17.013 720.4 16 L 730.4 16 A 11.741 11.741 0 0 1 730.644 17.313 Q 730.737 18.018 730.774 18.833 A 25.306 25.306 0 0 1 730.8 20 Q 730.8 21.968 730.507 23.496 A 12.311 12.311 0 0 1 730.4 24 L 734.4 24 A 13.936 13.936 0 0 1 734.127 22.398 Q 734 21.294 734 20 A 23.85 23.85 0 0 1 734.054 18.345 Q 734.147 17.013 734.4 16 L 749.4 16 A 11.741 11.741 0 0 1 749.644 17.313 Q 749.737 18.018 749.774 18.833 A 25.306 25.306 0 0 1 749.8 20 Q 749.8 21.968 749.507 23.496 A 12.311 12.311 0 0 1 749.4 24 L 752.4 24 Q 752.698 25.194 752.774 26.833 A 25.306 25.306 0 0 1 752.8 28 Q 752.8 29.968 752.507 31.496 A 12.311 12.311 0 0 1 752.4 32 Z M 325.4 24 L 328.4 24 L 333.4 24 Q 333.147 25.013 333.054 26.345 A 23.85 23.85 0 0 0 333 28 Q 333 29.294 333.127 30.398 A 13.936 13.936 0 0 0 333.4 32 Q 333.147 33.013 333.054 34.345 A 23.85 23.85 0 0 0 333 36 Q 333 37.294 333.127 38.398 A 13.936 13.936 0 0 0 333.4 40 Q 333.147 41.013 333.054 42.345 A 23.85 23.85 0 0 0 333 44 Q 333 45.294 333.127 46.398 A 13.936 13.936 0 0 0 333.4 48 Q 333.147 49.013 333.054 50.345 A 23.85 23.85 0 0 0 333 52 Q 333 53.294 333.127 54.398 A 13.936 13.936 0 0 0 333.4 56 L 339.4 56 A 12.311 12.311 0 0 0 339.507 55.496 Q 339.8 53.968 339.8 52 A 25.306 25.306 0 0 0 339.774 50.833 Q 339.698 49.194 339.4 48 A 12.311 12.311 0 0 0 339.507 47.496 Q 339.8 45.968 339.8 44 A 25.306 25.306 0 0 0 339.774 42.833 Q 339.698 41.194 339.4 40 A 12.311 12.311 0 0 0 339.507 39.496 Q 339.8 37.968 339.8 36 A 25.306 25.306 0 0 0 339.774 34.833 Q 339.698 33.194 339.4 32 A 12.311 12.311 0 0 0 339.507 31.496 Q 339.8 29.968 339.8 28 A 25.306 25.306 0 0 0 339.774 26.833 Q 339.698 25.194 339.4 24 L 336.4 24 A 12.311 12.311 0 0 0 336.507 23.496 Q 336.8 21.968 336.8 20 A 25.306 25.306 0 0 0 336.774 18.833 Q 336.698 17.194 336.4 16 L 328.4 16 Q 328.147 17.013 328.054 18.345 A 23.85 23.85 0 0 0 328 20 Q 328 21.294 328.127 22.398 A 13.936 13.936 0 0 0 328.4 24 A 11.741 11.741 0 0 1 328.644 25.313 Q 328.737 26.018 328.774 26.833 A 25.306 25.306 0 0 1 328.8 28 Q 328.8 29.968 328.507 31.496 A 12.311 12.311 0 0 1 328.4 32 A 11.741 11.741 0 0 1 328.644 33.313 Q 328.737 34.018 328.774 34.833 A 25.306 25.306 0 0 1 328.8 36 Q 328.8 37.968 328.507 39.496 A 12.311 12.311 0 0 1 328.4 40 A 11.741 11.741 0 0 1 328.644 41.313 Q 328.737 42.018 328.774 42.833 A 25.306 25.306 0 0 1 328.8 44 Q 328.8 45.968 328.507 47.496 A 12.311 12.311 0 0 1 328.4 48 A 11.741 11.741 0 0 1 328.644 49.313 Q 328.737 50.018 328.774 50.833 A 25.306 25.306 0 0 1 328.8 52 Q 328.8 53.968 328.507 55.496 A 12.311 12.311 0 0 1 328.4 56 L 320.4 56 A 13.936 13.936 0 0 1 320.127 54.398 Q 320 53.294 320 52 A 23.85 23.85 0 0 1 320.054 50.345 Q 320.147 49.013 320.4 48 A 13.936 13.936 0 0 1 320.127 46.398 Q 320 45.294 320 44 A 23.85 23.85 0 0 1 320.054 42.345 Q 320.147 41.013 320.4 40 A 13.936 13.936 0 0 1 320.127 38.398 Q 320 37.294 320 36 A 23.85 23.85 0 0 1 320.054 34.345 Q 320.147 33.013 320.4 32 A 13.936 13.936 0 0 1 320.127 30.398 Q 320 29.294 320 28 A 23.85 23.85 0 0 1 320.054 26.345 Q 320.147 25.013 320.4 24 A 13.936 13.936 0 0 1 320.127 22.398 Q 320 21.294 320 20 A 23.85 23.85 0 0 1 320.054 18.345 Q 320.147 17.013 320.4 16 L 325.4 16 A 11.741 11.741 0 0 1 325.644 17.313 Q 325.737 18.018 325.774 18.833 A 25.306 25.306 0 0 1 325.8 20 Q 325.8 21.968 325.507 23.496 A 12.311 12.311 0 0 1 325.4 24 Z M 512.4 24 L 509.4 24 A 11.741 11.741 0 0 1 509.644 25.313 Q 509.737 26.018 509.774 26.833 A 25.306 25.306 0 0 1 509.8 28 Q 509.8 29.968 509.507 31.496 A 12.311 12.311 0 0 1 509.4 32 L 506.4 32 Q 506.698 33.194 506.774 34.833 A 25.306 25.306 0 0 1 506.8 36 Q 506.8 37.968 506.507 39.496 A 12.311 12.311 0 0 1 506.4 40 L 504.4 40 Q 504.698 41.194 504.774 42.833 A 25.306 25.306 0 0 1 504.8 44 Q 504.8 45.968 504.507 47.496 A 12.311 12.311 0 0 1 504.4 48 L 500.4 48 Q 500.698 49.194 500.774 50.833 A 25.306 25.306 0 0 1 500.8 52 Q 500.8 53.968 500.507 55.496 A 12.311 12.311 0 0 1 500.4 56 L 492.4 56 A 13.936 13.936 0 0 1 492.127 54.398 Q 492 53.294 492 52 A 23.85 23.85 0 0 1 492.054 50.345 Q 492.147 49.013 492.4 48 L 488.4 48 A 13.936 13.936 0 0 1 488.127 46.398 Q 488 45.294 488 44 A 23.85 23.85 0 0 1 488.054 42.345 Q 488.147 41.013 488.4 40 L 486.4 40 A 13.936 13.936 0 0 1 486.127 38.398 Q 486 37.294 486 36 A 23.85 23.85 0 0 1 486.054 34.345 Q 486.147 33.013 486.4 32 L 483.4 32 A 13.936 13.936 0 0 1 483.127 30.398 Q 483 29.294 483 28 A 23.85 23.85 0 0 1 483.054 26.345 Q 483.147 25.013 483.4 24 L 480.4 24 A 13.936 13.936 0 0 1 480.127 22.398 Q 480 21.294 480 20 A 23.85 23.85 0 0 1 480.054 18.345 Q 480.147 17.013 480.4 16 L 488.4 16 A 11.741 11.741 0 0 1 488.644 17.313 Q 488.737 18.018 488.774 18.833 A 25.306 25.306 0 0 1 488.8 20 Q 488.8 21.968 488.507 23.496 A 12.311 12.311 0 0 1 488.4 24 L 491.4 24 A 11.741 11.741 0 0 1 491.644 25.313 Q 491.737 26.018 491.774 26.833 A 25.306 25.306 0 0 1 491.8 28 Q 491.8 29.968 491.507 31.496 A 12.311 12.311 0 0 1 491.4 32 L 494.4 32 A 11.741 11.741 0 0 1 494.644 33.313 Q 494.737 34.018 494.774 34.833 A 25.306 25.306 0 0 1 494.8 36 Q 494.8 37.968 494.507 39.496 A 12.311 12.311 0 0 1 494.4 40 L 498.4 40 A 13.936 13.936 0 0 1 498.127 38.398 Q 498 37.294 498 36 A 23.85 23.85 0 0 1 498.054 34.345 Q 498.147 33.013 498.4 32 L 501.4 32 A 13.936 13.936 0 0 1 501.127 30.398 Q 501 29.294 501 28 A 23.85 23.85 0 0 1 501.054 26.345 Q 501.147 25.013 501.4 24 L 504.4 24 A 13.936 13.936 0 0 1 504.127 22.398 Q 504 21.294 504 20 A 23.85 23.85 0 0 1 504.054 18.345 Q 504.147 17.013 504.4 16 L 512.4 16 Q 512.698 17.194 512.774 18.833 A 25.306 25.306 0 0 1 512.8 20 Q 512.8 21.968 512.507 23.496 A 12.311 12.311 0 0 1 512.4 24 Z M 672.4 24 L 669.4 24 A 11.741 11.741 0 0 1 669.644 25.313 Q 669.737 26.018 669.774 26.833 A 25.306 25.306 0 0 1 669.8 28 Q 669.8 29.968 669.507 31.496 A 12.311 12.311 0 0 1 669.4 32 L 666.4 32 Q 666.698 33.194 666.774 34.833 A 25.306 25.306 0 0 1 666.8 36 Q 666.8 37.968 666.507 39.496 A 12.311 12.311 0 0 1 666.4 40 L 664.4 40 Q 664.698 41.194 664.774 42.833 A 25.306 25.306 0 0 1 664.8 44 Q 664.8 45.968 664.507 47.496 A 12.311 12.311 0 0 1 664.4 48 L 660.4 48 Q 660.698 49.194 660.774 50.833 A 25.306 25.306 0 0 1 660.8 52 Q 660.8 53.968 660.507 55.496 A 12.311 12.311 0 0 1 660.4 56 L 652.4 56 A 13.936 13.936 0 0 1 652.127 54.398 Q 652 53.294 652 52 A 23.85 23.85 0 0 1 652.054 50.345 Q 652.147 49.013 652.4 48 L 648.4 48 A 13.936 13.936 0 0 1 648.127 46.398 Q 648 45.294 648 44 A 23.85 23.85 0 0 1 648.054 42.345 Q 648.147 41.013 648.4 40 L 646.4 40 A 13.936 13.936 0 0 1 646.127 38.398 Q 646 37.294 646 36 A 23.85 23.85 0 0 1 646.054 34.345 Q 646.147 33.013 646.4 32 L 643.4 32 A 13.936 13.936 0 0 1 643.127 30.398 Q 643 29.294 643 28 A 23.85 23.85 0 0 1 643.054 26.345 Q 643.147 25.013 643.4 24 L 640.4 24 A 13.936 13.936 0 0 1 640.127 22.398 Q 640 21.294 640 20 A 23.85 23.85 0 0 1 640.054 18.345 Q 640.147 17.013 640.4 16 L 648.4 16 A 11.741 11.741 0 0 1 648.644 17.313 Q 648.737 18.018 648.774 18.833 A 25.306 25.306 0 0 1 648.8 20 Q 648.8 21.968 648.507 23.496 A 12.311 12.311 0 0 1 648.4 24 L 651.4 24 A 11.741 11.741 0 0 1 651.644 25.313 Q 651.737 26.018 651.774 26.833 A 25.306 25.306 0 0 1 651.8 28 Q 651.8 29.968 651.507 31.496 A 12.311 12.311 0 0 1 651.4 32 L 654.4 32 A 11.741 11.741 0 0 1 654.644 33.313 Q 654.737 34.018 654.774 34.833 A 25.306 25.306 0 0 1 654.8 36 Q 654.8 37.968 654.507 39.496 A 12.311 12.311 0 0 1 654.4 40 L 658.4 40 A 13.936 13.936 0 0 1 658.127 38.398 Q 658 37.294 658 36 A 23.85 23.85 0 0 1 658.054 34.345 Q 658.147 33.013 658.4 32 L 661.4 32 A 13.936 13.936 0 0 1 661.127 30.398 Q 661 29.294 661 28 A 23.85 23.85 0 0 1 661.054 26.345 Q 661.147 25.013 661.4 24 L 664.4 24 A 13.936 13.936 0 0 1 664.127 22.398 Q 664 21.294 664 20 A 23.85 23.85 0 0 1 664.054 18.345 Q 664.147 17.013 664.4 16 L 672.4 16 Q 672.698 17.194 672.774 18.833 A 25.306 25.306 0 0 1 672.8 20 Q 672.8 21.968 672.507 23.496 A 12.311 12.311 0 0 1 672.4 24 Z M 1027.9 32 L 1022.9 32 Q 1023.198 33.194 1023.274 34.833 A 25.306 25.306 0 0 1 1023.3 36 Q 1023.3 37.968 1023.007 39.496 A 12.311 12.311 0 0 1 1022.9 40 L 1017.9 40 Q 1018.198 41.194 1018.274 42.833 A 25.306 25.306 0 0 1 1018.3 44 Q 1018.3 45.968 1018.007 47.496 A 12.311 12.311 0 0 1 1017.9 48 L 1012.9 48 Q 1013.198 49.194 1013.274 50.833 A 25.306 25.306 0 0 1 1013.3 52 Q 1013.3 53.968 1013.007 55.496 A 12.311 12.311 0 0 1 1012.9 56 L 1004.9 56 A 13.936 13.936 0 0 1 1004.627 54.398 Q 1004.5 53.294 1004.5 52 A 23.85 23.85 0 0 1 1004.554 50.345 Q 1004.647 49.013 1004.9 48 L 1009.9 48 A 13.936 13.936 0 0 1 1009.627 46.398 Q 1009.5 45.294 1009.5 44 A 23.85 23.85 0 0 1 1009.554 42.345 Q 1009.647 41.013 1009.9 40 L 1014.9 40 A 13.936 13.936 0 0 1 1014.627 38.398 Q 1014.5 37.294 1014.5 36 A 23.85 23.85 0 0 1 1014.554 34.345 Q 1014.647 33.013 1014.9 32 L 1019.9 32 A 13.936 13.936 0 0 1 1019.627 30.398 Q 1019.5 29.294 1019.5 28 A 23.85 23.85 0 0 1 1019.554 26.345 Q 1019.647 25.013 1019.9 24 L 1014.9 24 A 13.936 13.936 0 0 1 1014.627 22.398 Q 1014.5 21.294 1014.5 20 A 23.85 23.85 0 0 1 1014.554 18.345 Q 1014.647 17.013 1014.9 16 L 1009.9 16 A 13.936 13.936 0 0 1 1009.627 14.398 Q 1009.5 13.294 1009.5 12 A 23.85 23.85 0 0 1 1009.554 10.345 Q 1009.647 9.013 1009.9 8 L 1004.9 8 A 13.936 13.936 0 0 1 1004.627 6.398 Q 1004.5 5.294 1004.5 4 A 23.85 23.85 0 0 1 1004.554 2.345 Q 1004.647 1.013 1004.9 0 L 1012.9 0 Q 1013.198 1.194 1013.274 2.833 A 25.306 25.306 0 0 1 1013.3 4 Q 1013.3 5.968 1013.007 7.496 A 12.311 12.311 0 0 1 1012.9 8 L 1017.9 8 Q 1018.198 9.194 1018.274 10.833 A 25.306 25.306 0 0 1 1018.3 12 Q 1018.3 13.968 1018.007 15.496 A 12.311 12.311 0 0 1 1017.9 16 L 1022.9 16 Q 1023.198 17.194 1023.274 18.833 A 25.306 25.306 0 0 1 1023.3 20 Q 1023.3 21.968 1023.007 23.496 A 12.311 12.311 0 0 1 1022.9 24 L 1027.9 24 Q 1028.198 25.194 1028.274 26.833 A 25.306 25.306 0 0 1 1028.3 28 Q 1028.3 29.968 1028.007 31.496 A 12.311 12.311 0 0 1 1027.9 32 Z M 72.4 40 L 51.4 40 A 11.741 11.741 0 0 1 51.644 41.313 Q 51.737 42.018 51.774 42.833 A 25.306 25.306 0 0 1 51.8 44 Q 51.8 45.968 51.507 47.496 A 12.311 12.311 0 0 1 51.4 48 L 68.4 48 A 11.741 11.741 0 0 1 68.644 49.313 Q 68.737 50.018 68.774 50.833 A 25.306 25.306 0 0 1 68.8 52 Q 68.8 53.968 68.507 55.496 A 12.311 12.311 0 0 1 68.4 56 L 48.4 56 A 13.936 13.936 0 0 1 48.127 54.398 Q 48 53.294 48 52 A 23.85 23.85 0 0 1 48.054 50.345 Q 48.147 49.013 48.4 48 L 43.4 48 A 13.936 13.936 0 0 1 43.127 46.398 Q 43 45.294 43 44 A 23.85 23.85 0 0 1 43.054 42.345 Q 43.147 41.013 43.4 40 L 40.4 40 A 13.936 13.936 0 0 1 40.127 38.398 Q 40 37.294 40 36 A 23.85 23.85 0 0 1 40.054 34.345 Q 40.147 33.013 40.4 32 L 43.4 32 A 13.936 13.936 0 0 1 43.127 30.398 Q 43 29.294 43 28 A 23.85 23.85 0 0 1 43.054 26.345 Q 43.147 25.013 43.4 24 L 48.4 24 A 13.936 13.936 0 0 1 48.127 22.398 Q 48 21.294 48 20 A 23.85 23.85 0 0 1 48.054 18.345 Q 48.147 17.013 48.4 16 L 68.4 16 A 11.741 11.741 0 0 1 68.644 17.313 Q 68.737 18.018 68.774 18.833 A 25.306 25.306 0 0 1 68.8 20 Q 68.8 21.968 68.507 23.496 A 12.311 12.311 0 0 1 68.4 24 L 72.4 24 Q 72.698 25.194 72.774 26.833 A 25.306 25.306 0 0 1 72.8 28 Q 72.8 29.968 72.507 31.496 A 12.311 12.311 0 0 1 72.4 32 Q 72.698 33.194 72.774 34.833 A 25.306 25.306 0 0 1 72.8 36 Q 72.8 37.968 72.507 39.496 A 12.311 12.311 0 0 1 72.4 40 Z M 152.4 40 L 131.4 40 A 11.741 11.741 0 0 1 131.644 41.313 Q 131.737 42.018 131.774 42.833 A 25.306 25.306 0 0 1 131.8 44 Q 131.8 45.968 131.507 47.496 A 12.311 12.311 0 0 1 131.4 48 L 148.4 48 A 11.741 11.741 0 0 1 148.644 49.313 Q 148.737 50.018 148.774 50.833 A 25.306 25.306 0 0 1 148.8 52 Q 148.8 53.968 148.507 55.496 A 12.311 12.311 0 0 1 148.4 56 L 128.4 56 A 13.936 13.936 0 0 1 128.127 54.398 Q 128 53.294 128 52 A 23.85 23.85 0 0 1 128.054 50.345 Q 128.147 49.013 128.4 48 L 123.4 48 A 13.936 13.936 0 0 1 123.127 46.398 Q 123 45.294 123 44 A 23.85 23.85 0 0 1 123.054 42.345 Q 123.147 41.013 123.4 40 L 120.4 40 A 13.936 13.936 0 0 1 120.127 38.398 Q 120 37.294 120 36 A 23.85 23.85 0 0 1 120.054 34.345 Q 120.147 33.013 120.4 32 L 123.4 32 A 13.936 13.936 0 0 1 123.127 30.398 Q 123 29.294 123 28 A 23.85 23.85 0 0 1 123.054 26.345 Q 123.147 25.013 123.4 24 L 128.4 24 A 13.936 13.936 0 0 1 128.127 22.398 Q 128 21.294 128 20 A 23.85 23.85 0 0 1 128.054 18.345 Q 128.147 17.013 128.4 16 L 148.4 16 A 11.741 11.741 0 0 1 148.644 17.313 Q 148.737 18.018 148.774 18.833 A 25.306 25.306 0 0 1 148.8 20 Q 148.8 21.968 148.507 23.496 A 12.311 12.311 0 0 1 148.4 24 L 152.4 24 Q 152.698 25.194 152.774 26.833 A 25.306 25.306 0 0 1 152.8 28 Q 152.8 29.968 152.507 31.496 A 12.311 12.311 0 0 1 152.4 32 Q 152.698 33.194 152.774 34.833 A 25.306 25.306 0 0 1 152.8 36 Q 152.8 37.968 152.507 39.496 A 12.311 12.311 0 0 1 152.4 40 Z M 472.4 40 L 451.4 40 A 11.741 11.741 0 0 1 451.644 41.313 Q 451.737 42.018 451.774 42.833 A 25.306 25.306 0 0 1 451.8 44 Q 451.8 45.968 451.507 47.496 A 12.311 12.311 0 0 1 451.4 48 L 468.4 48 A 11.741 11.741 0 0 1 468.644 49.313 Q 468.737 50.018 468.774 50.833 A 25.306 25.306 0 0 1 468.8 52 Q 468.8 53.968 468.507 55.496 A 12.311 12.311 0 0 1 468.4 56 L 448.4 56 A 13.936 13.936 0 0 1 448.127 54.398 Q 448 53.294 448 52 A 23.85 23.85 0 0 1 448.054 50.345 Q 448.147 49.013 448.4 48 L 443.4 48 A 13.936 13.936 0 0 1 443.127 46.398 Q 443 45.294 443 44 A 23.85 23.85 0 0 1 443.054 42.345 Q 443.147 41.013 443.4 40 L 440.4 40 A 13.936 13.936 0 0 1 440.127 38.398 Q 440 37.294 440 36 A 23.85 23.85 0 0 1 440.054 34.345 Q 440.147 33.013 440.4 32 L 443.4 32 A 13.936 13.936 0 0 1 443.127 30.398 Q 443 29.294 443 28 A 23.85 23.85 0 0 1 443.054 26.345 Q 443.147 25.013 443.4 24 L 448.4 24 A 13.936 13.936 0 0 1 448.127 22.398 Q 448 21.294 448 20 A 23.85 23.85 0 0 1 448.054 18.345 Q 448.147 17.013 448.4 16 L 468.4 16 A 11.741 11.741 0 0 1 468.644 17.313 Q 468.737 18.018 468.774 18.833 A 25.306 25.306 0 0 1 468.8 20 Q 468.8 21.968 468.507 23.496 A 12.311 12.311 0 0 1 468.4 24 L 472.4 24 Q 472.698 25.194 472.774 26.833 A 25.306 25.306 0 0 1 472.8 28 Q 472.8 29.968 472.507 31.496 A 12.311 12.311 0 0 1 472.4 32 Q 472.698 33.194 472.774 34.833 A 25.306 25.306 0 0 1 472.8 36 Q 472.8 37.968 472.507 39.496 A 12.311 12.311 0 0 1 472.4 40 Z M 712.4 40 L 691.4 40 A 11.741 11.741 0 0 1 691.644 41.313 Q 691.737 42.018 691.774 42.833 A 25.306 25.306 0 0 1 691.8 44 Q 691.8 45.968 691.507 47.496 A 12.311 12.311 0 0 1 691.4 48 L 708.4 48 A 11.741 11.741 0 0 1 708.644 49.313 Q 708.737 50.018 708.774 50.833 A 25.306 25.306 0 0 1 708.8 52 Q 708.8 53.968 708.507 55.496 A 12.311 12.311 0 0 1 708.4 56 L 688.4 56 A 13.936 13.936 0 0 1 688.127 54.398 Q 688 53.294 688 52 A 23.85 23.85 0 0 1 688.054 50.345 Q 688.147 49.013 688.4 48 L 683.4 48 A 13.936 13.936 0 0 1 683.127 46.398 Q 683 45.294 683 44 A 23.85 23.85 0 0 1 683.054 42.345 Q 683.147 41.013 683.4 40 L 680.4 40 A 13.936 13.936 0 0 1 680.127 38.398 Q 680 37.294 680 36 A 23.85 23.85 0 0 1 680.054 34.345 Q 680.147 33.013 680.4 32 L 683.4 32 A 13.936 13.936 0 0 1 683.127 30.398 Q 683 29.294 683 28 A 23.85 23.85 0 0 1 683.054 26.345 Q 683.147 25.013 683.4 24 L 688.4 24 A 13.936 13.936 0 0 1 688.127 22.398 Q 688 21.294 688 20 A 23.85 23.85 0 0 1 688.054 18.345 Q 688.147 17.013 688.4 16 L 708.4 16 A 11.741 11.741 0 0 1 708.644 17.313 Q 708.737 18.018 708.774 18.833 A 25.306 25.306 0 0 1 708.8 20 Q 708.8 21.968 708.507 23.496 A 12.311 12.311 0 0 1 708.4 24 L 712.4 24 Q 712.698 25.194 712.774 26.833 A 25.306 25.306 0 0 1 712.8 28 Q 712.8 29.968 712.507 31.496 A 12.311 12.311 0 0 1 712.4 32 Q 712.698 33.194 712.774 34.833 A 25.306 25.306 0 0 1 712.8 36 Q 712.8 37.968 712.507 39.496 A 12.311 12.311 0 0 1 712.4 40 Z M 588.4 56 L 564.4 56 A 13.936 13.936 0 0 1 564.127 54.398 Q 564 53.294 564 52 A 23.85 23.85 0 0 1 564.054 50.345 Q 564.147 49.013 564.4 48 L 572.4 48 A 13.936 13.936 0 0 1 572.127 46.398 Q 572 45.294 572 44 A 23.85 23.85 0 0 1 572.054 42.345 Q 572.147 41.013 572.4 40 A 13.936 13.936 0 0 1 572.127 38.398 Q 572 37.294 572 36 A 23.85 23.85 0 0 1 572.054 34.345 Q 572.147 33.013 572.4 32 A 13.936 13.936 0 0 1 572.127 30.398 Q 572 29.294 572 28 A 23.85 23.85 0 0 1 572.054 26.345 Q 572.147 25.013 572.4 24 A 13.936 13.936 0 0 1 572.127 22.398 Q 572 21.294 572 20 A 23.85 23.85 0 0 1 572.054 18.345 Q 572.147 17.013 572.4 16 A 13.936 13.936 0 0 1 572.127 14.398 Q 572 13.294 572 12 A 23.85 23.85 0 0 1 572.054 10.345 Q 572.147 9.013 572.4 8 L 566.4 8 A 13.936 13.936 0 0 1 566.127 6.398 Q 566 5.294 566 4 A 23.85 23.85 0 0 1 566.054 2.345 Q 566.147 1.013 566.4 0 L 580.4 0 Q 580.698 1.194 580.774 2.833 A 25.306 25.306 0 0 1 580.8 4 Q 580.8 5.968 580.507 7.496 A 12.311 12.311 0 0 1 580.4 8 Q 580.698 9.194 580.774 10.833 A 25.306 25.306 0 0 1 580.8 12 Q 580.8 13.968 580.507 15.496 A 12.311 12.311 0 0 1 580.4 16 Q 580.698 17.194 580.774 18.833 A 25.306 25.306 0 0 1 580.8 20 Q 580.8 21.968 580.507 23.496 A 12.311 12.311 0 0 1 580.4 24 Q 580.698 25.194 580.774 26.833 A 25.306 25.306 0 0 1 580.8 28 Q 580.8 29.968 580.507 31.496 A 12.311 12.311 0 0 1 580.4 32 Q 580.698 33.194 580.774 34.833 A 25.306 25.306 0 0 1 580.8 36 Q 580.8 37.968 580.507 39.496 A 12.311 12.311 0 0 1 580.4 40 Q 580.698 41.194 580.774 42.833 A 25.306 25.306 0 0 1 580.8 44 Q 580.8 45.968 580.507 47.496 A 12.311 12.311 0 0 1 580.4 48 L 588.4 48 A 11.741 11.741 0 0 1 588.644 49.313 Q 588.737 50.018 588.774 50.833 A 25.306 25.306 0 0 1 588.8 52 Q 588.8 53.968 588.507 55.496 A 12.311 12.311 0 0 1 588.4 56 Z M 872.4 40 L 869.4 40 A 11.741 11.741 0 0 1 869.644 41.313 Q 869.737 42.018 869.774 42.833 A 25.306 25.306 0 0 1 869.8 44 Q 869.8 45.968 869.507 47.496 A 12.311 12.311 0 0 1 869.4 48 L 864.4 48 Q 864.698 49.194 864.774 50.833 A 25.306 25.306 0 0 1 864.8 52 Q 864.8 53.968 864.507 55.496 A 12.311 12.311 0 0 1 864.4 56 L 848.4 56 A 13.936 13.936 0 0 1 848.127 54.398 Q 848 53.294 848 52 A 23.85 23.85 0 0 1 848.054 50.345 Q 848.147 49.013 848.4 48 L 843.4 48 A 13.936 13.936 0 0 1 843.127 46.398 Q 843 45.294 843 44 A 23.85 23.85 0 0 1 843.054 42.345 Q 843.147 41.013 843.4 40 L 840.4 40 A 13.936 13.936 0 0 1 840.127 38.398 Q 840 37.294 840 36 A 23.85 23.85 0 0 1 840.054 34.345 Q 840.147 33.013 840.4 32 L 843.4 32 A 13.936 13.936 0 0 1 843.127 30.398 Q 843 29.294 843 28 A 23.85 23.85 0 0 1 843.054 26.345 Q 843.147 25.013 843.4 24 L 848.4 24 A 13.936 13.936 0 0 1 848.127 22.398 Q 848 21.294 848 20 A 23.85 23.85 0 0 1 848.054 18.345 Q 848.147 17.013 848.4 16 L 864.4 16 Q 864.698 17.194 864.774 18.833 A 25.306 25.306 0 0 1 864.8 20 Q 864.8 21.968 864.507 23.496 A 12.311 12.311 0 0 1 864.4 24 L 869.4 24 A 11.741 11.741 0 0 1 869.644 25.313 Q 869.737 26.018 869.774 26.833 A 25.306 25.306 0 0 1 869.8 28 Q 869.8 29.968 869.507 31.496 A 12.311 12.311 0 0 1 869.4 32 L 872.4 32 Q 872.698 33.194 872.774 34.833 A 25.306 25.306 0 0 1 872.8 36 Q 872.8 37.968 872.507 39.496 A 12.311 12.311 0 0 1 872.4 40 Z M 228.4 56 L 204.4 56 A 13.936 13.936 0 0 1 204.127 54.398 Q 204 53.294 204 52 A 23.85 23.85 0 0 1 204.054 50.345 Q 204.147 49.013 204.4 48 L 212.4 48 A 13.936 13.936 0 0 1 212.127 46.398 Q 212 45.294 212 44 A 23.85 23.85 0 0 1 212.054 42.345 Q 212.147 41.013 212.4 40 A 13.936 13.936 0 0 1 212.127 38.398 Q 212 37.294 212 36 A 23.85 23.85 0 0 1 212.054 34.345 Q 212.147 33.013 212.4 32 A 13.936 13.936 0 0 1 212.127 30.398 Q 212 29.294 212 28 A 23.85 23.85 0 0 1 212.054 26.345 Q 212.147 25.013 212.4 24 L 206.4 24 A 13.936 13.936 0 0 1 206.127 22.398 Q 206 21.294 206 20 A 23.85 23.85 0 0 1 206.054 18.345 Q 206.147 17.013 206.4 16 L 220.4 16 Q 220.698 17.194 220.774 18.833 A 25.306 25.306 0 0 1 220.8 20 Q 220.8 21.968 220.507 23.496 A 12.311 12.311 0 0 1 220.4 24 Q 220.698 25.194 220.774 26.833 A 25.306 25.306 0 0 1 220.8 28 Q 220.8 29.968 220.507 31.496 A 12.311 12.311 0 0 1 220.4 32 Q 220.698 33.194 220.774 34.833 A 25.306 25.306 0 0 1 220.8 36 Q 220.8 37.968 220.507 39.496 A 12.311 12.311 0 0 1 220.4 40 Q 220.698 41.194 220.774 42.833 A 25.306 25.306 0 0 1 220.8 44 Q 220.8 45.968 220.507 47.496 A 12.311 12.311 0 0 1 220.4 48 L 228.4 48 A 11.741 11.741 0 0 1 228.644 49.313 Q 228.737 50.018 228.774 50.833 A 25.306 25.306 0 0 1 228.8 52 Q 228.8 53.968 228.507 55.496 A 12.311 12.311 0 0 1 228.4 56 Z M 548.4 56 L 524.4 56 A 13.936 13.936 0 0 1 524.127 54.398 Q 524 53.294 524 52 A 23.85 23.85 0 0 1 524.054 50.345 Q 524.147 49.013 524.4 48 L 532.4 48 A 13.936 13.936 0 0 1 532.127 46.398 Q 532 45.294 532 44 A 23.85 23.85 0 0 1 532.054 42.345 Q 532.147 41.013 532.4 40 A 13.936 13.936 0 0 1 532.127 38.398 Q 532 37.294 532 36 A 23.85 23.85 0 0 1 532.054 34.345 Q 532.147 33.013 532.4 32 A 13.936 13.936 0 0 1 532.127 30.398 Q 532 29.294 532 28 A 23.85 23.85 0 0 1 532.054 26.345 Q 532.147 25.013 532.4 24 L 526.4 24 A 13.936 13.936 0 0 1 526.127 22.398 Q 526 21.294 526 20 A 23.85 23.85 0 0 1 526.054 18.345 Q 526.147 17.013 526.4 16 L 540.4 16 Q 540.698 17.194 540.774 18.833 A 25.306 25.306 0 0 1 540.8 20 Q 540.8 21.968 540.507 23.496 A 12.311 12.311 0 0 1 540.4 24 Q 540.698 25.194 540.774 26.833 A 25.306 25.306 0 0 1 540.8 28 Q 540.8 29.968 540.507 31.496 A 12.311 12.311 0 0 1 540.4 32 Q 540.698 33.194 540.774 34.833 A 25.306 25.306 0 0 1 540.8 36 Q 540.8 37.968 540.507 39.496 A 12.311 12.311 0 0 1 540.4 40 Q 540.698 41.194 540.774 42.833 A 25.306 25.306 0 0 1 540.8 44 Q 540.8 45.968 540.507 47.496 A 12.311 12.311 0 0 1 540.4 48 L 548.4 48 A 11.741 11.741 0 0 1 548.644 49.313 Q 548.737 50.018 548.774 50.833 A 25.306 25.306 0 0 1 548.8 52 Q 548.8 53.968 548.507 55.496 A 12.311 12.311 0 0 1 548.4 56 Z M 828.4 56 L 804.4 56 A 13.936 13.936 0 0 1 804.127 54.398 Q 804 53.294 804 52 A 23.85 23.85 0 0 1 804.054 50.345 Q 804.147 49.013 804.4 48 L 812.4 48 A 13.936 13.936 0 0 1 812.127 46.398 Q 812 45.294 812 44 A 23.85 23.85 0 0 1 812.054 42.345 Q 812.147 41.013 812.4 40 A 13.936 13.936 0 0 1 812.127 38.398 Q 812 37.294 812 36 A 23.85 23.85 0 0 1 812.054 34.345 Q 812.147 33.013 812.4 32 A 13.936 13.936 0 0 1 812.127 30.398 Q 812 29.294 812 28 A 23.85 23.85 0 0 1 812.054 26.345 Q 812.147 25.013 812.4 24 L 806.4 24 A 13.936 13.936 0 0 1 806.127 22.398 Q 806 21.294 806 20 A 23.85 23.85 0 0 1 806.054 18.345 Q 806.147 17.013 806.4 16 L 820.4 16 Q 820.698 17.194 820.774 18.833 A 25.306 25.306 0 0 1 820.8 20 Q 820.8 21.968 820.507 23.496 A 12.311 12.311 0 0 1 820.4 24 Q 820.698 25.194 820.774 26.833 A 25.306 25.306 0 0 1 820.8 28 Q 820.8 29.968 820.507 31.496 A 12.311 12.311 0 0 1 820.4 32 Q 820.698 33.194 820.774 34.833 A 25.306 25.306 0 0 1 820.8 36 Q 820.8 37.968 820.507 39.496 A 12.311 12.311 0 0 1 820.4 40 Q 820.698 41.194 820.774 42.833 A 25.306 25.306 0 0 1 820.8 44 Q 820.8 45.968 820.507 47.496 A 12.311 12.311 0 0 1 820.4 48 L 828.4 48 A 11.741 11.741 0 0 1 828.644 49.313 Q 828.737 50.018 828.774 50.833 A 25.306 25.306 0 0 1 828.8 52 Q 828.8 53.968 828.507 55.496 A 12.311 12.311 0 0 1 828.4 56 Z M 339.4 24 L 344.4 24 Q 344.147 25.013 344.054 26.345 A 23.85 23.85 0 0 0 344 28 Q 344 29.294 344.127 30.398 A 13.936 13.936 0 0 0 344.4 32 Q 344.147 33.013 344.054 34.345 A 23.85 23.85 0 0 0 344 36 Q 344 37.294 344.127 38.398 A 13.936 13.936 0 0 0 344.4 40 Q 344.147 41.013 344.054 42.345 A 23.85 23.85 0 0 0 344 44 Q 344 45.294 344.127 46.398 A 13.936 13.936 0 0 0 344.4 48 Q 344.147 49.013 344.054 50.345 A 23.85 23.85 0 0 0 344 52 Q 344 53.294 344.127 54.398 A 13.936 13.936 0 0 0 344.4 56 L 352.4 56 A 12.311 12.311 0 0 0 352.507 55.496 Q 352.8 53.968 352.8 52 A 25.306 25.306 0 0 0 352.774 50.833 Q 352.698 49.194 352.4 48 A 12.311 12.311 0 0 0 352.507 47.496 Q 352.8 45.968 352.8 44 A 25.306 25.306 0 0 0 352.774 42.833 Q 352.698 41.194 352.4 40 A 12.311 12.311 0 0 0 352.507 39.496 Q 352.8 37.968 352.8 36 A 25.306 25.306 0 0 0 352.774 34.833 Q 352.698 33.194 352.4 32 A 12.311 12.311 0 0 0 352.507 31.496 Q 352.8 29.968 352.8 28 A 25.306 25.306 0 0 0 352.774 26.833 Q 352.698 25.194 352.4 24 L 348.4 24 A 12.311 12.311 0 0 0 348.507 23.496 Q 348.8 21.968 348.8 20 A 25.306 25.306 0 0 0 348.774 18.833 Q 348.737 18.018 348.644 17.313 A 11.741 11.741 0 0 0 348.4 16 L 339.4 16 Q 339.147 17.013 339.054 18.345 A 23.85 23.85 0 0 0 339 20 Q 339 21.294 339.127 22.398 A 13.936 13.936 0 0 0 339.4 24 Z M 861.4 40 L 864.4 40 A 13.936 13.936 0 0 1 864.127 38.398 Q 864 37.294 864 36 A 23.85 23.85 0 0 1 864.054 34.345 Q 864.147 33.013 864.4 32 L 861.4 32 A 13.936 13.936 0 0 1 861.127 30.398 Q 861 29.294 861 28 A 23.85 23.85 0 0 1 861.054 26.345 Q 861.147 25.013 861.4 24 L 851.4 24 A 11.741 11.741 0 0 1 851.644 25.313 Q 851.737 26.018 851.774 26.833 A 25.306 25.306 0 0 1 851.8 28 Q 851.8 29.968 851.507 31.496 A 12.311 12.311 0 0 1 851.4 32 L 848.4 32 A 11.741 11.741 0 0 1 848.644 33.313 Q 848.737 34.018 848.774 34.833 A 25.306 25.306 0 0 1 848.8 36 Q 848.8 37.968 848.507 39.496 A 12.311 12.311 0 0 1 848.4 40 L 851.4 40 A 11.741 11.741 0 0 1 851.644 41.313 Q 851.737 42.018 851.774 42.833 A 25.306 25.306 0 0 1 851.8 44 Q 851.8 45.968 851.507 47.496 A 12.311 12.311 0 0 1 851.4 48 L 861.4 48 A 13.936 13.936 0 0 1 861.127 46.398 Q 861 45.294 861 44 A 23.85 23.85 0 0 1 861.054 42.345 Q 861.147 41.013 861.4 40 Z M 966.4 24 L 986.4 24 Q 986.698 25.194 986.774 26.833 A 25.306 25.306 0 0 1 986.8 28 Q 986.8 29.968 986.507 31.496 A 12.311 12.311 0 0 1 986.4 32 L 966.4 32 A 13.936 13.936 0 0 1 966.127 30.398 Q 966 29.294 966 28 A 23.85 23.85 0 0 1 966.054 26.345 Q 966.147 25.013 966.4 24 Z M 64.4 24 L 51.4 24 A 11.741 11.741 0 0 1 51.644 25.313 Q 51.737 26.018 51.774 26.833 A 25.306 25.306 0 0 1 51.8 28 Q 51.8 29.968 51.507 31.496 A 12.311 12.311 0 0 1 51.4 32 L 64.4 32 A 13.936 13.936 0 0 1 64.127 30.398 Q 64 29.294 64 28 A 23.85 23.85 0 0 1 64.054 26.345 Q 64.147 25.013 64.4 24 Z M 144.4 24 L 131.4 24 A 11.741 11.741 0 0 1 131.644 25.313 Q 131.737 26.018 131.774 26.833 A 25.306 25.306 0 0 1 131.8 28 Q 131.8 29.968 131.507 31.496 A 12.311 12.311 0 0 1 131.4 32 L 144.4 32 A 13.936 13.936 0 0 1 144.127 30.398 Q 144 29.294 144 28 A 23.85 23.85 0 0 1 144.054 26.345 Q 144.147 25.013 144.4 24 Z M 464.4 24 L 451.4 24 A 11.741 11.741 0 0 1 451.644 25.313 Q 451.737 26.018 451.774 26.833 A 25.306 25.306 0 0 1 451.8 28 Q 451.8 29.968 451.507 31.496 A 12.311 12.311 0 0 1 451.4 32 L 464.4 32 A 13.936 13.936 0 0 1 464.127 30.398 Q 464 29.294 464 28 A 23.85 23.85 0 0 1 464.054 26.345 Q 464.147 25.013 464.4 24 Z M 704.4 24 L 691.4 24 A 11.741 11.741 0 0 1 691.644 25.313 Q 691.737 26.018 691.774 26.833 A 25.306 25.306 0 0 1 691.8 28 Q 691.8 29.968 691.507 31.496 A 12.311 12.311 0 0 1 691.4 32 L 704.4 32 A 13.936 13.936 0 0 1 704.127 30.398 Q 704 29.294 704 28 A 23.85 23.85 0 0 1 704.054 26.345 Q 704.147 25.013 704.4 24 Z M 220.4 8 L 212.4 8 A 13.936 13.936 0 0 1 212.127 6.398 Q 212 5.294 212 4 A 23.85 23.85 0 0 1 212.054 2.345 Q 212.147 1.013 212.4 0 L 220.4 0 Q 220.698 1.194 220.774 2.833 A 25.306 25.306 0 0 1 220.8 4 Q 220.8 5.968 220.507 7.496 A 12.311 12.311 0 0 1 220.4 8 Z M 540.4 8 L 532.4 8 A 13.936 13.936 0 0 1 532.127 6.398 Q 532 5.294 532 4 A 23.85 23.85 0 0 1 532.054 2.345 Q 532.147 1.013 532.4 0 L 540.4 0 Q 540.698 1.194 540.774 2.833 A 25.306 25.306 0 0 1 540.8 4 Q 540.8 5.968 540.507 7.496 A 12.311 12.311 0 0 1 540.4 8 Z M 820.4 8 L 812.4 8 A 13.936 13.936 0 0 1 812.127 6.398 Q 812 5.294 812 4 A 23.85 23.85 0 0 1 812.054 2.345 Q 812.147 1.013 812.4 0 L 820.4 0 Q 820.698 1.194 820.774 2.833 A 25.306 25.306 0 0 1 820.8 4 Q 820.8 5.968 820.507 7.496 A 12.311 12.311 0 0 1 820.4 8 Z M 339.4 24 Q 339.698 25.194 339.774 26.833" vector-effect="non-scaling-stroke"/></g></svg>